<?xml version="1.0" encoding="utf-8"?>
<svg version="1.1" id="svg2" fill="currentColor" viewBox="0 0 400 400" xmlns="http://www.w3.org/2000/svg">
  <defs id="defs6"/>
  <g id="g8" transform="matrix(0.484731, 0, 0, -0.484731, 116.307068, 326.16275)" style="">
    <g id="g10" transform="scale(0.1)">
      <path d="m 2106.68,5096.95 c -137.03,-56.01 -228.01,-133.98 -293.01,-251.01 -101.01,-180.98 -230,-255 -445,-255 -225,-0.98 -381.99,-77.97 -536.99,-265 -172.032,-207.97 -279.02,-442.97 -372.032,-816.99 -110.976,-447 -140.976,-820 -140.976,-1760 V 1280.94 H 3138.67 v 254.02 c 0,276.99 -6.01,330.98 -49.02,420.98 -30,63.01 -142.97,182.03 -351.99,368.01 -53.01,46.99 -118.01,110 -145,140 -45,49.02 -537,681.01 -558.01,716.01 -5,8.01 19.02,-6.99 55,-36.01 81.01,-63.99 177.03,-117 253.01,-138.01 71.01,-20.98 211.99,-22.97 276.01,-3.99 25,7 83.01,12 130,12 98.01,0 146.99,-15.98 255,-82 38.99,-23 103.99,-58.98 145,-78.98 68.99,-34.02 81.99,-37.03 165.98,-37.03 84.02,0 96.01,3.01 160,35 61.01,31.01 82.03,50 192.03,180 163.98,192.03 190,249.02 161.99,352.03 -20,70.98 30,28.98 -875,741.99 -264.02,208.99 -506.01,403.99 -539.02,435 -130,123.99 -175.98,233.99 -175.98,420 0,78.01 -4.02,120.98 -11.99,128.99 -18.01,18 -57.03,14.02 -120,-12 z" style="fill-opacity: 1; fill-rule: nonzero; stroke: none;" id="path12"/>
      <path d="m 418.672,949.961 c -14.024,-6.012 -36.012,-20 -49.024,-31.992 C 356.68,905.941 267.66,738.949 171.68,545.941 5.66016,213.949 -3.32031,193.949 0.660156,148.949 6.67969,92.9688 42.6602,40.9414 92.6602,16.9492 124.648,1.94922 260.66,0.941406 1771.68,2.96875 3415.66,5.94141 3417.66,5.94141 3444.65,26.9492 c 45,33.0117 67.03,70 71.01,121.0198 5,45.98 -3,62.972 -170,397.972 -96.01,193.008 -185,360 -198,372.028 -13.01,11.992 -37,25.98 -52,31.992 -38,15 -2641.012,13.988 -2676.988,0 z" style="fill-opacity: 1; fill-rule: nonzero; stroke: none;" id="path14"/>
    </g>
  </g>
  <ellipse style="stroke: currentcolor; fill: none; stroke-width: 15px;" cx="202.399" cy="202.908" rx="186.134" ry="186.134"/>
</svg>