<?xml version="1.0" encoding="utf-8"?>
<svg version="1.1" id="svg2" fill="currentColor" viewBox="0 0 400 400" xmlns="http://www.w3.org/2000/svg">
  <defs id="defs6"/>
  <g transform="matrix(0.475153, 0, 0, -0.475153, 5.833705, -9.722464)" style="transform-origin: 190.532px 207.9px;">
    <g transform="matrix(1, 0, 0, 1, -1024.764648, -367.515228)">
      <g id="g10">
        <ellipse style="stroke-width: 30.7976px; fill: none; stroke: currentColor;" transform="matrix(1, 0, 0, -1, 0, 0)" cx="1215.297" cy="-575.415" rx="351.969" ry="351.969"/>
        <path d="M 1314.495 696.287 L 1301.729 696.287 L 1301.729 698.524 C 1305.225 698.452 1307.448 699.207 1305.892 702.281 C 1303.531 706.914 1313.757 706.669 1315.265 705.668 C 1317.935 703.895 1316.177 698.764 1314.495 696.287 Z M 1297.031 693.183 L 1312.515 693.183 C 1310.801 690.588 1305.971 681.809 1302.86 681.797 C 1301.603 683.544 1297.48 689.228 1297.031 693.183 Z M 1347.324 711.814 C 1346.645 711.471 1345.867 711.138 1344.772 710.932 C 1339.899 704.037 1342.84 704.844 1334.249 699.088 C 1334.269 687.537 1334.597 686.295 1337.308 676.06 C 1337.376 675.815 1337.339 675.578 1337.205 675.362 C 1337.07 675.147 1336.879 675.008 1336.634 674.957 C 1334.554 674.51 1331.57 673.743 1329.84 673.419 C 1329.895 673.055 1330.717 666.514 1329.789 661.643 C 1328.336 653.997 1310.138 637.266 1305.793 636.41 C 1299.781 635.226 1293.063 640.533 1282.56 645.144 C 1279.663 646.415 1269.949 652.802 1264.862 654.499 C 1260.644 655.905 1256.414 645.636 1261.651 642.88 C 1264.092 641.598 1267.984 639.871 1269.215 636.686 C 1272.857 627.241 1268.64 590.817 1261.132 583.492 C 1257.568 583.52 1254.568 586.793 1251.921 585.937 C 1247.192 583.35 1250.187 568.901 1251.921 566.387 C 1280.996 536.477 1277.544 514.326 1289.888 497.784 C 1295.519 497.784 1291.825 491.821 1296.095 484.814 C 1297.23 481.215 1295.765 475.103 1295.151 472.786 C 1295.151 469.777 1295.151 466.77 1295.151 463.761 C 1294.841 462.822 1294.527 461.883 1294.21 460.943 C 1294.21 458.311 1294.21 455.679 1294.21 453.049 C 1293.349 449.203 1292.396 444.048 1291.583 440.455 C 1289.861 432.878 1296.524 426.99 1292.52 419.78 C 1292.52 415.349 1292.535 416.23 1289.888 412.637 C 1289.888 405.756 1288.27 391.256 1289.888 386.134 C 1291.019 382.571 1303.94 367.469 1307.182 366.022 C 1314.995 362.543 1326.515 363.291 1322.781 350.985 C 1299.908 343.966 1285.306 354.944 1273.12 355.123 L 1272.548 353.026 C 1264.743 353.013 1258.509 354.935 1256.81 355.498 C 1256.795 357.606 1259.33 373.775 1260.191 376.361 C 1261.068 377.739 1261.945 379.119 1262.822 380.496 C 1263.77 383.249 1261.858 403.443 1261.695 408.879 C 1256.822 412.457 1255.869 423.371 1255.869 429.366 C 1254.465 434.005 1254.465 439.505 1254.179 445.531 C 1254.044 448.357 1252.358 452.509 1253.426 456.056 C 1254.152 458.476 1256.881 459.533 1257.56 461.508 C 1257.56 463.761 1257.56 466.018 1257.56 468.274 C 1258.846 475.393 1258.445 478.673 1254.179 482.934 C 1243.482 482.794 1242.009 482.28 1236.132 491.393 C 1234.307 494.225 1219.347 517.827 1217.902 518.458 C 1205.454 523.892 1207.931 521.778 1202.486 531.427 C 1202.264 531.423 1198.951 530.321 1196.022 525.94 C 1191.57 519.286 1183.685 497.658 1181.436 490.077 C 1180.182 485.847 1181.443 481.172 1179.559 477.672 C 1178.193 475.137 1173.749 474.324 1172.789 472.597 C 1168.427 464.738 1171.697 465.352 1163.392 459.817 C 1161.896 457.89 1161.852 454.998 1160.761 452.674 C 1160.135 451.797 1159.508 450.919 1158.881 450.042 C 1157.484 447.043 1160.369 441.574 1159.821 439.705 C 1158.384 434.78 1156.487 429.811 1154.559 425.23 C 1150.753 416.198 1151.246 404.199 1147.408 398.645 C 1145.48 395.855 1140.817 398.575 1137.266 396.284 C 1137.059 394.344 1131.417 381.447 1130.31 377.863 C 1130.31 371.035 1130.31 364.206 1130.31 357.376 C 1131.373 353.923 1134.286 350.635 1133.417 346.266 C 1132.496 341.61 1116.306 341.684 1107.521 342.95 C 1101.64 343.798 1099.874 348.132 1099.973 353.145 C 1100.089 359.06 1112.053 397.495 1111.327 400.045 C 1102.243 410.263 1113.759 420.78 1117.156 430.307 C 1118.81 434.951 1117.794 441.431 1119.596 445.717 C 1122.79 451.544 1125.989 457.372 1129.183 463.198 C 1135.012 468.703 1132.421 468.981 1135.576 473.913 C 1138.314 478.191 1141.635 481.075 1139.71 487.632 C 1135.838 500.819 1144.23 519.512 1144.785 533.308 C 1143.298 534.875 1138.25 534.378 1137.615 538.587 C 1136.329 547.149 1140.861 562.314 1143.654 563.757 C 1144.897 564.397 1146.314 563.828 1147.417 564.509 C 1147.417 570.935 1141.031 606.682 1145.881 608.492 C 1148.873 609.608 1155.75 610.197 1157.071 610.794 C 1156.991 612.317 1155.948 615.569 1154.682 615.746 C 1152.551 616.042 1148.178 616.868 1144.699 617.672 C 1134.016 620.133 1143.901 662.265 1144.032 662.435 C 1146.972 666.317 1160.611 661.082 1162.265 667.701 C 1166.825 673.517 1158.745 695.904 1174.309 723.463 C 1179.563 732.769 1189.626 742.167 1201.359 738.183 C 1205.292 736.85 1202.907 731.196 1209.82 737.242 C 1209.99 740.77 1208.355 743.727 1207.375 746.643 C 1195.884 780.924 1234.815 799.499 1262.072 779.912 C 1265.135 778.67 1266.921 778.059 1269.215 776.34 C 1270.715 768.579 1278.409 754.769 1270.719 745.703 C 1267.571 745.028 1263.715 743.27 1261.318 741.568 C 1261.278 738.433 1261.683 735.546 1262.259 733.674 C 1262.774 731.991 1263.758 731.323 1261.223 730.292 C 1260.905 730.163 1261.04 729.114 1261.215 728.717 C 1267.576 727.466 1274.357 729.893 1278.611 731.607 L 1283.691 731.607 L 1283.691 738.008 L 1285.003 738.008 L 1286.115 738.008 L 1286.115 743.02 L 1288.539 743.02 L 1288.539 734.353 L 1294.876 734.353 L 1294.876 731.607 L 1388.83 731.607 L 1388.83 726.728 L 1392.985 726.728 L 1392.985 744.58 L 1396.481 744.58 L 1396.481 730.064 L 1404.481 730.064 L 1404.481 721.774 L 1429.353 721.774 L 1429.353 724.241 L 1433.492 724.241 L 1433.492 723.155 L 1445.241 723.155 L 1445.241 716.247 L 1433.492 716.247 L 1433.492 715.163 L 1429.353 715.163 L 1429.353 717.629 L 1404.481 717.629 L 1404.481 715.16 C 1400.826 715.16 1397.175 715.16 1393.525 715.16 L 1393.525 716.833 L 1388.83 716.833 L 1388.83 711.814 L 1347.324 711.814" style="fill-opacity: 1; fill-rule: evenodd;" id="path12"/>
      </g>
    </g>
  </g>
</svg>