<?xml version="1.0" encoding="utf-8"?>
<svg version="1.1" id="Слой_1" fill="currentColor" x="0px" y="0px" viewBox="0 0 400 400" xmlns="http://www.w3.org/2000/svg">
  <defs/>
  <g transform="matrix(0.433224, 0, 0, 0.433224, 3.230519, 8.167418)">
    <path class="st0" d="M743.4,534.4V198.8c-41.8-18.1-88.2-31.6-138.2-41.4c6.9,8.8,13.5,17.9,19.7,27.5&#10;&#9;&#9;c35.1,7.3,68.1,16.5,98.5,29.5v302.8c10.4,163.5-76.9,260.9-257.5,305.3c-9.2,2.3-18.9,2.3-28.1,0&#10;&#9;&#9;c-180.7-44.3-267.9-139.3-257.5-301.9V214.5c35.2-15.1,73.9-25.1,115.4-32.9c-0.1-0.2-0.3-0.4-0.4-0.5c-0.9-1.2-1.9-2.7-2.8-4.5&#10;&#9;&#9;l-4.7-10.2l11.3-1.6c5.3-0.7,9.5-2.9,12.8-6.7c1.2-1.3,2.3-2.8,3.3-4.3c-57.2,10.1-110.2,24.6-157.3,45v335.6&#10;&#9;&#9;C148,705.3,240.7,814.7,435.5,863c9.9,2.5,20.3,2.5,30.2,0C660.5,814.7,753.3,705.3,743.4,534.4z" style="fill-rule: nonzero; stroke-width: 11.5414px; stroke: rgb(52, 122, 240);"/>
    <path class="st1" d="M 403.2 230.9 C 390.1 188.6 347.7 184.4 331.3 184.9 C 323.6 185.1 322.7 195.7 322.7 195.7 C 319.6 246.6 354.4 286.9 401.9 277.8 C 406.5 285.8 410.4 292 408.1 304.7 C 409.6 302.2 418.8 309.7 418.9 309.6 C 419 309.3 432.8 282 430.5 262.8 C 428.3 244.3 416 231.9 403.2 230.9 Z M 340.2 243.1 C 338.1 241 336.7 238.3 335.6 235.4 C 344.2 240.7 355.4 238.2 357.3 243.1 C 350.7 242.1 345.1 242.2 340.2 243.1 Z" style=""/>
    <path class="st0" d="M412.3,296.9c0,0.1-0.1,0.2-0.1,0.2c-11.6,23.5-36.7,51.1-76.7,76.1h340.9c-5.1-96.2-48.2-186.1-106.8-243&#10;&#9;&#9;c-8.7-19.5-22.8-32.9-38.4-40.2l-2.6-3.3c11.5-16.1,15.9-53.8,29.2-58.1c-19.7,0-39.5,6.4-59.4,19.5c0,0-5.1-4.8,0.3-11.5l9.2-11.3&#10;&#9;&#9;c-25.8-3.7-55.3,16.4-72.2,37.9c-48.2,5.5-71.4,26.9-87.1,48.8c-17.9,25-19.9,39.9-30.3,51.8c-4.8,5.5-10.9,8.6-18,9.6&#10;&#9;&#9;c4.2,1.6,6.7,4.6,10.1,7.5c4.6,3.9,10,7.9,16.4,10.2c11.6,4.3,22.9,0.4,34.1,5.6c15.2,7.1,29.4,24.7,34.2,41.9&#10;&#9;&#9;c25.2,5.1,34.8,21.4,18,56.7C412.8,295.9,412.6,296.4,412.3,296.9z M389.9,153.6c-3.9,3.9-16.1,8.4-29,17.2&#10;&#9;&#9;c-7.5-2.5-11.5-7.1-11.1-14.9c15,0,31.2,0.7,39.3-3.4C389.8,152.2,390.4,153,389.9,153.6z" style=""/>
    <polygon class="st0" points="443,438.5 443,381.1 231.3,381.1 231.3,537.8 352.8,537.8 352.8,607 214,607 242.2,664.3 439.8,664.3 &#10;&#9;439.8,480.4 317.8,480.4 317.8,438.5 " style=""/>
    <polygon class="st0" points="448.1,381.1 675.2,381.1 675.2,437.5 536.7,437.5 536.7,490.7 668.6,490.7 668.6,547.2 536.2,547.2 &#10;&#9;536.2,607.5 686.5,607.5 663.2,664.3 448.1,664.3 " style=""/>
    <path class="st0" d="M 310.2 729.8 C 310.2 727.9 309.7 726.7 308.8 726 C 307.9 725.3 306.7 725 305.3 725 C 303.2 725 301.6 725.6 300.6 726.9 C 300.2 727.5 299.6 727.9 298.6 727.9 L 292.1 727.9 C 290.9 727.9 290.3 727.5 290.3 726.8 L 290.3 705.8 C 290.3 705.1 290.9 704.7 292.1 704.7 L 315.5 704.7 C 316.7 704.7 317.4 705.1 317.4 705.8 L 317.4 709 C 317.4 709.7 316.8 710.1 315.5 710.1 L 299.7 710.1 L 299.7 722.8 C 300.8 721.7 302.1 721 303.6 720.4 C 305.1 719.9 306.9 719.6 309.2 719.6 C 316.2 719.6 319.7 722 319.7 726.8 L 319.7 738.4 C 319.7 741.6 318.6 744 316.3 745.6 C 314 747.2 310.3 748 305.1 748 C 300 748 296.2 747.2 293.8 745.6 C 291.4 744 290.2 741.6 290.2 738.4 L 290.2 737 C 290.2 736.3 290.8 735.9 292 735.9 L 297.9 735.9 C 299.1 735.9 299.7 736.3 299.7 737 L 299.7 738.2 C 299.7 739.7 300.2 740.8 301.2 741.5 C 302.2 742.2 303.4 742.5 304.9 742.5 C 306.4 742.5 307.6 742.1 308.6 741.4 C 309.6 740.7 310.1 739.6 310.1 738.1 L 310.1 729.8 L 310.2 729.8 Z" style=""/>
    <path class="st0" d="M 327.5 747.4 C 326.3 747.4 325.6 747 325.6 746.3 L 325.6 705.8 C 325.6 705.1 326.2 704.7 327.5 704.7 L 349.3 704.7 C 350.5 704.7 351.2 705.1 351.2 705.8 L 351.2 709 C 351.2 709.7 350.6 710.1 349.3 710.1 L 335.2 710.1 L 335.2 723.1 L 348.7 723.1 C 349.9 723.1 350.6 723.5 350.6 724.2 L 350.6 727.4 C 350.6 728.1 350 728.5 348.7 728.5 L 335.2 728.5 L 335.2 742 L 349.3 742 C 350.5 742 351.2 742.4 351.2 743.1 L 351.2 746.3 C 351.2 747 350.6 747.4 349.3 747.4 L 327.5 747.4 Z" style=""/>
    <path class="st0" d="M 359.2 747.4 C 358 747.4 357.3 747 357.3 746.3 L 357.3 705.8 C 357.3 705.1 357.9 704.7 359.2 704.7 L 373.1 704.7 C 376.9 704.7 380.1 705.4 382.6 706.9 C 385.1 708.4 386.3 710.6 386.3 713.6 L 386.3 720.9 C 386.3 724 385.1 726.2 382.8 727.7 C 380.5 729.2 377.4 729.9 373.6 729.9 L 366.8 729.9 L 366.8 746.4 C 366.8 747.1 366.2 747.5 364.9 747.5 L 359.2 747.5 L 359.2 747.4 Z M 376.8 714.3 C 376.8 712.8 376.4 711.7 375.6 711 C 374.8 710.3 373.4 710 371.6 710 L 366.9 710 L 366.9 724.3 L 371.6 724.3 C 373.4 724.3 374.8 724 375.6 723.3 C 376.4 722.6 376.8 721.6 376.8 720 L 376.8 714.3 Z" style=""/>
    <path class="st0" d="M 393.7 747.4 C 392.5 747.4 391.8 747 391.8 746.3 L 391.8 705.8 C 391.8 705.1 392.4 704.7 393.7 704.7 L 399.5 704.7 C 400.7 704.7 401.4 705.1 401.4 705.8 L 401.4 742 L 410.9 742 C 412.1 742 412.8 742.4 412.8 743.1 L 412.8 746.3 C 412.8 747 412.2 747.4 410.9 747.4 L 393.7 747.4 Z" style=""/>
    <path class="st0" d="M 439.1 747.4 C 437.9 747.4 437.2 747 437.1 746.3 L 435.4 737.9 L 425 737.9 L 423.3 746.3 C 423.2 747 422.6 747.4 421.3 747.4 L 415.5 747.4 C 414.2 747.4 413.6 747 413.8 746.2 L 422.9 705.7 C 423 705 423.6 704.6 424.9 704.6 L 435.3 704.6 C 436.5 704.6 437.2 705 437.3 705.7 L 446.4 746.2 C 446.6 747 446 747.4 444.7 747.4 L 439.1 747.4 Z M 430.2 711.2 L 426 732.5 L 434.4 732.5 L 430.2 711.2 Z" style=""/>
    <path class="st0" d="M 457.9 747.4 C 456.7 747.4 456 747 456 746.3 L 456 732.6 L 444.7 705.9 C 444.3 705.1 444.9 704.7 446.3 704.7 L 452.1 704.7 C 453.2 704.7 453.9 705 454.1 705.7 L 460.7 724.1 L 467.5 705.7 C 467.8 705 468.5 704.7 469.5 704.7 L 475.3 704.7 C 476.7 704.7 477.3 705.1 476.9 705.9 L 465.5 732.5 L 465.5 746.3 C 465.5 747 464.9 747.4 463.6 747.4 L 457.9 747.4 Z" style=""/>
    <path class="st0" d="M 486 746.8 C 484.9 747.5 483.5 747.8 481.8 747.8 C 480.1 747.8 478.8 747.5 477.6 746.8 C 476.5 746.1 475.9 745.3 475.9 744.3 C 475.9 743.3 476.5 742.5 477.6 741.8 C 478.7 741.1 480.1 740.8 481.8 740.8 C 483.5 740.8 484.8 741.1 486 741.8 C 487.1 742.5 487.7 743.3 487.7 744.3 C 487.7 745.3 487.1 746.1 486 746.8 Z" style=""/>
    <path class="st0" d="M 522.5 739.2 C 522.5 740.8 522.1 742.1 521.3 743.3 C 520.5 744.5 519.5 745.4 518.1 746.1 C 516.7 746.8 515.2 747.3 513.5 747.6 C 511.8 747.9 509.9 748.1 507.9 748.1 C 505.9 748.1 504 747.9 502.2 747.6 C 500.4 747.3 498.9 746.7 497.5 746 C 496.1 745.3 495 744.4 494.3 743.2 C 493.5 742 493.1 740.7 493.1 739.2 L 493.1 712.9 C 493.1 709.9 494.5 707.7 497.2 706.2 C 500 704.7 503.6 704 508.1 704 C 509.6 704 511.1 704.1 512.5 704.3 C 513.9 704.5 515.2 704.8 516.4 705.2 C 517.6 705.6 518.7 706.1 519.6 706.8 C 520.5 707.4 521.2 708.2 521.7 709.2 C 522.2 710.2 522.5 711.3 522.5 712.6 L 522.5 718.6 C 522.5 719.3 521.9 719.7 520.6 719.7 L 514.8 719.7 C 513.6 719.7 512.9 719.3 512.9 718.6 L 512.9 713.8 C 512.9 712.3 512.4 711.3 511.4 710.6 C 510.4 709.9 509.2 709.6 507.7 709.6 C 506.2 709.6 505 709.9 504 710.6 C 503 711.3 502.5 712.4 502.5 713.8 L 502.5 738.7 C 502.5 740.2 503 741.2 504 741.9 C 505 742.6 506.2 742.9 507.7 742.9 C 509.2 742.9 510.4 742.6 511.4 741.9 C 512.4 741.2 512.9 740.1 512.9 738.7 L 512.9 734.5 C 512.9 733.8 513.5 733.4 514.8 733.4 L 520.6 733.4 C 521.8 733.4 522.5 733.8 522.5 734.5 L 522.5 739.2 Z" style=""/>
    <path class="st0" d="M 528.1 712.9 C 528.1 709.9 529.5 707.7 532.3 706.2 C 535.1 704.7 538.8 704 543.4 704 C 552.8 704 557.5 707 557.5 712.9 L 557.5 739.2 C 557.5 740.8 557.1 742.1 556.3 743.3 C 555.5 744.5 554.5 745.4 553.1 746.1 C 551.7 746.8 550.2 747.3 548.5 747.6 C 546.8 747.9 544.9 748.1 542.9 748.1 C 540.9 748.1 539 747.9 537.2 747.6 C 535.4 747.3 533.9 746.7 532.5 746 C 531.1 745.3 530 744.4 529.3 743.2 C 528.5 742 528.1 740.7 528.1 739.2 L 528.1 712.9 Z M 548 713.6 C 548 712.1 547.5 711.1 546.5 710.4 C 545.5 709.7 544.3 709.4 542.8 709.4 C 541.3 709.4 540.1 709.7 539.1 710.4 C 538.1 711.1 537.6 712.2 537.6 713.6 L 537.6 738.5 C 537.6 740 538.1 741 539.1 741.7 C 540.1 742.4 541.3 742.7 542.8 742.7 C 544.3 742.7 545.5 742.4 546.5 741.7 C 547.5 741 548 739.9 548 738.5 L 548 713.6 Z" style=""/>
    <path class="st0" d="M 603.4 747.4 C 602.2 747.4 601.5 747 601.5 746.3 L 601.7 715.4 L 592.3 746.4 C 592.1 747.1 591.5 747.4 590.3 747.4 L 585.1 747.4 C 584 747.4 583.3 747.1 583.1 746.4 L 573.7 715.5 L 573.9 746.3 C 573.9 747 573.3 747.4 572 747.4 L 566.2 747.4 C 565 747.4 564.3 747 564.3 746.3 L 564.3 705.8 C 564.3 705.1 564.9 704.7 566.2 704.7 L 577.9 704.7 C 579.1 704.7 579.8 705 579.9 705.7 L 587.5 734.5 L 595.1 705.7 C 595.3 705 596 704.7 597.1 704.7 L 608.8 704.7 C 610 704.7 610.7 705.1 610.7 705.8 L 610.7 746.3 C 610.7 747 610.1 747.4 608.8 747.4 L 603.4 747.4 Z" style=""/>
  </g>
</svg>