<?xml version="1.0" encoding="utf-8"?>
<svg version="1.1" id="svg2" fill="currentColor" viewBox="0 0 400 400" xmlns="http://www.w3.org/2000/svg">
  <defs id="defs6"/>
  <ellipse style="stroke-width: 15px; stroke: currentcolor; fill: none;" cx="200.487" cy="200.361" rx="179.526" ry="179.526"/>
  <g id="g8" transform="matrix(1.031748, 0, 0, -1.031748, 58.087765, 276.227386)" style="">
    <g id="g10" transform="scale(0.1)">
      <path d="M 230.777,1418.49 H 2606.55 c 53.79,0 97.8,-38.26 97.8,-85.02 v -178.88 h 133.38 V 1015.61 H 2704.35 V 397.691 h 133.38 V 258.715 H 2704.35 V 86.1875 c 0,-46.7578 -44.01,-85.01953 -97.8,-85.01953 H 230.777 c -53.793,0 -97.8,38.26173 -97.8,85.01953 V 258.715 H 3.08203 V 397.691 H 132.977 V 1015.61 H 3.08203 v 138.98 H 132.977 v 178.88 c 0,46.76 44.007,85.02 97.8,85.02 z m 93.758,-143.84 H 2512.79 c 11.01,0 20.03,-7.83 20.03,-17.41 V 162.418 c 0,-9.574 -9.02,-17.406 -20.03,-17.406 H 324.535 c -11.015,0 -20.019,7.832 -20.019,17.406 V 1257.24 c 0,9.58 9.004,17.41 20.019,17.41" style="fill-opacity: 1; fill-rule: evenodd; stroke: rgb(255, 255, 255);" id="path12"/>
      <path d="M 230.777,1418.49 H 2606.55 c 53.79,0 97.8,-38.26 97.8,-85.02 v -178.88 h 133.38 V 1015.61 H 2704.35 V 397.691 h 133.38 V 258.715 H 2704.35 V 86.1875 c 0,-46.7578 -44.01,-85.01953 -97.8,-85.01953 H 230.777 c -53.793,0 -97.8,38.26173 -97.8,85.01953 V 258.715 H 3.08203 V 397.691 H 132.977 V 1015.61 H 3.08203 v 138.98 H 132.977 v 178.88 c 0,46.76 44.007,85.02 97.8,85.02 z m 93.758,-143.84 H 2512.79 c 11.01,0 20.03,-7.83 20.03,-17.41 V 162.418 c 0,-9.574 -9.02,-17.406 -20.03,-17.406 H 324.535 c -11.015,0 -20.019,7.832 -20.019,17.406 V 1257.24 c 0,9.58 9.004,17.41 20.019,17.41 z" style="stroke-width: 2.16; stroke-linecap: butt; stroke-linejoin: miter; stroke-miterlimit: 2.61313; stroke-dasharray: none; stroke-opacity: 1; fill-rule: evenodd; stroke: rgb(255, 255, 255);" id="path14"/>
      <path d="m 493.203,1139.92 c 115.426,0 230.852,0 346.274,0 18.211,0 33.105,-12.95 33.105,-28.78 V 650.152 c 0,-15.828 -14.894,-28.777 -33.105,-28.777 H 632.953 V 282.309 c 0,-7.731 -7.273,-14.051 -16.164,-14.051 H 493.203 c -8.89,0 -16.164,6.32 -16.164,14.051 v 843.561 c 0,7.72 7.274,14.05 16.164,14.05 z m 146.738,-118.19 h 66.832 c 4.809,0 8.743,-3.41 8.743,-7.59 V 755.547 c 0,-4.18 -3.934,-7.598 -8.743,-7.598 h -66.832 c -4.808,0 -8.738,3.418 -8.738,7.598 v 258.593 c 0,4.18 3.93,7.59 8.738,7.59" style="fill-opacity: 1; fill-rule: evenodd; stroke: rgb(255, 255, 255);" id="path16"/>
      <path d="m 493.203,1139.92 c 115.426,0 230.852,0 346.274,0 18.211,0 33.105,-12.95 33.105,-28.78 V 650.152 c 0,-15.828 -14.894,-28.777 -33.105,-28.777 H 632.953 V 282.309 c 0,-7.731 -7.273,-14.051 -16.164,-14.051 H 493.203 c -8.89,0 -16.164,6.32 -16.164,14.051 v 843.561 c 0,7.72 7.274,14.05 16.164,14.05 z m 146.738,-118.19 h 66.832 c 4.809,0 8.743,-3.41 8.743,-7.59 V 755.547 c 0,-4.18 -3.934,-7.598 -8.743,-7.598 h -66.832 c -4.808,0 -8.738,3.418 -8.738,7.598 v 258.593 c 0,4.18 3.93,7.59 8.738,7.59 z" style="stroke-width: 2.16; stroke-linecap: butt; stroke-linejoin: miter; stroke-miterlimit: 2.61313; stroke-dasharray: none; stroke-opacity: 1; fill-rule: evenodd; stroke: rgb(255, 255, 255);" id="path18"/>
      <path d="m 1133.6,393.895 h 113.12 v 737.185 c 0,5.41 5.08,9.83 11.3,9.83 h 129.67 c 6.21,0 11.3,-4.42 11.3,-9.83 v -745.982 -99.883 -1.031 c 0,-4.836 -4.55,-8.793 -10.12,-8.793 h -1.18 -129.67 -135.72 -129.663 -1.078 c -5.43,0 -9.891,3.761 -10.11,8.437 -0.074,0.453 -0.113,0.918 -0.113,1.387 v 845.865 c 0,5.41 5.086,9.83 11.301,9.83 H 1122.3 c 6.22,0 11.3,-4.42 11.3,-9.83 V 393.895" style="fill-opacity: 1; fill-rule: evenodd; stroke: rgb(255, 255, 255);" id="path20"/>
      <path d="m 1133.6,393.895 h 113.12 v 737.185 c 0,5.41 5.08,9.83 11.3,9.83 h 129.67 c 6.21,0 11.3,-4.42 11.3,-9.83 v -745.982 -99.883 -1.031 c 0,-4.836 -4.55,-8.793 -10.12,-8.793 h -1.18 -129.67 -135.72 -129.663 -1.078 c -5.43,0 -9.891,3.761 -10.11,8.437 -0.074,0.453 -0.113,0.918 -0.113,1.387 v 845.865 c 0,5.41 5.086,9.83 11.301,9.83 H 1122.3 c 6.22,0 11.3,-4.42 11.3,-9.83 z" style="stroke-width: 2.16; stroke-linecap: butt; stroke-linejoin: miter; stroke-miterlimit: 2.61313; stroke-dasharray: none; stroke-opacity: 1; fill-rule: evenodd; stroke: rgb(255, 255, 255);" id="path22"/>
      <path d="m 2147.37,393.344 h 87.35 v 277.609 h -9.77 c -14.09,0 -25.62,10.024 -25.62,22.274 v 80.058 c 0,12.246 11.53,22.27 25.62,22.27 h 36.82 97.25 1.44 c 14.09,0 25.62,-10.024 25.62,-22.27 v -1.25 -78.808 -321.446 -75.566 -1.957 c 0,-11.86 -11.17,-21.563 -24.81,-21.563 h -2.25 -97.25 -142.1 -99.56 -2.89 c -13.64,0 -24.81,9.703 -24.81,21.563 v 2.512 75.011 673.079 76.83 2.11 c 0,12.08 11.38,21.96 25.27,21.96 h 2.43 99.56 145.09 94.91 1.14 c 13.89,0 25.27,-9.88 25.27,-21.96 v -0.99 -77.95 -90.965 c 0,-12.629 -11.88,-22.957 -26.41,-22.957 h -94.91 c -14.53,0 -26.41,10.328 -26.41,22.957 v 69.005 h -90.98 V 393.344" style="fill-opacity: 1; fill-rule: evenodd; stroke: rgb(255, 255, 255);" id="path24"/>
      <path d="m 2147.37,393.344 h 87.35 v 277.609 h -9.77 c -14.09,0 -25.62,10.024 -25.62,22.274 v 80.058 c 0,12.246 11.53,22.27 25.62,22.27 h 36.82 97.25 1.44 c 14.09,0 25.62,-10.024 25.62,-22.27 v -1.25 -78.808 -321.446 -75.566 -1.957 c 0,-11.86 -11.17,-21.563 -24.81,-21.563 h -2.25 -97.25 -142.1 -99.56 -2.89 c -13.64,0 -24.81,9.703 -24.81,21.563 v 2.512 75.011 673.079 76.83 2.11 c 0,12.08 11.38,21.96 25.27,21.96 h 2.43 99.56 145.09 94.91 1.14 c 13.89,0 25.27,-9.88 25.27,-21.96 v -0.99 -77.95 -90.965 c 0,-12.629 -11.88,-22.957 -26.41,-22.957 h -94.91 c -14.53,0 -26.41,10.328 -26.41,22.957 v 69.005 h -90.98 z" style="stroke-width: 2.16; stroke-linecap: butt; stroke-linejoin: miter; stroke-miterlimit: 2.61313; stroke-dasharray: none; stroke-opacity: 1; fill-rule: evenodd; stroke: rgb(255, 255, 255);" id="path26"/>
      <path d="m 1543.64,1143.06 h 307.77 c 21.04,0 38.26,-14.96 38.26,-33.26 V 791.629 h -44.83 V 660.66 h 44.83 v -351 c 0,-18.293 -17.22,-33.258 -38.26,-33.258 h -307.77 c -21.04,0 -38.26,14.965 -38.26,33.258 v 349.332 h -48.3 v 134.305 h 48.3 V 1109.8 c 0,18.3 17.22,33.26 38.26,33.26 z m 118.03,-482.482 h 62.04 c 5.48,0 9.95,-3.89 9.95,-8.652 V 435.641 c 0,-4.758 -4.47,-8.649 -9.95,-8.649 h -62.04 c -5.47,0 -9.95,3.891 -9.95,8.649 v 216.285 c 0,4.762 4.48,8.652 9.95,8.652 z m 0,365.752 h 62.04 c 5.48,0 9.95,-3.89 9.95,-8.65 V 801.391 c 0,-4.754 -4.47,-8.649 -9.95,-8.649 h -62.04 c -5.47,0 -9.95,3.895 -9.95,8.649 v 216.289 c 0,4.76 4.48,8.65 9.95,8.65" style="fill-opacity: 1; fill-rule: evenodd; stroke: rgb(255, 255, 255);" id="path28"/>
      <path d="m 1543.64,1143.06 h 307.77 c 21.04,0 38.26,-14.96 38.26,-33.26 V 791.629 h -44.83 V 660.66 h 44.83 v -351 c 0,-18.293 -17.22,-33.258 -38.26,-33.258 h -307.77 c -21.04,0 -38.26,14.965 -38.26,33.258 v 349.332 h -48.3 v 134.305 h 48.3 V 1109.8 c 0,18.3 17.22,33.26 38.26,33.26 z m 118.03,-482.482 h 62.04 c 5.48,0 9.95,-3.89 9.95,-8.652 V 435.641 c 0,-4.758 -4.47,-8.649 -9.95,-8.649 h -62.04 c -5.47,0 -9.95,3.891 -9.95,8.649 v 216.285 c 0,4.762 4.48,8.652 9.95,8.652 z m 0,365.752 h 62.04 c 5.48,0 9.95,-3.89 9.95,-8.65 V 801.391 c 0,-4.754 -4.47,-8.649 -9.95,-8.649 h -62.04 c -5.47,0 -9.95,3.895 -9.95,8.649 v 216.289 c 0,4.76 4.48,8.65 9.95,8.65 z" style="stroke-width: 2.16; stroke-linecap: butt; stroke-linejoin: miter; stroke-miterlimit: 2.61313; stroke-dasharray: none; stroke-opacity: 1; fill-rule: evenodd; stroke: rgb(255, 255, 255);" id="path30"/>
    </g>
  </g>
</svg>